<svg width="451" height="381" viewBox="0 0 451 381" fill="none" xmlns="http://www.w3.org/2000/svg">
<circle cx="376" cy="231" r="75" fill="white" fill-opacity="0.99"/>
<circle cx="179" cy="231" r="150" fill="#141414" fill-opacity="0.99"/>
<path d="M102.002 211.881H49.5117V206.021H102.002V211.881ZM91.5039 233.316C91.5039 225.504 87.8092 221.598 80.4199 221.598C74.9512 221.598 70.3776 224.462 66.6992 230.191C63.444 235.27 61.8164 240.673 61.8164 246.402V260.611L53.8086 256.412V219.693H62.207V225.504L66.5527 222.232C70.3939 219.335 74.4466 217.887 78.7109 217.887C84.5052 217.887 89.3066 220.133 93.1152 224.625C96.696 228.857 98.4863 233.919 98.4863 239.811C98.4863 247.2 95.3613 254.296 89.1113 261.1L79.6875 255.191C82.6172 252.294 85.1074 249.625 87.1582 247.184C90.0553 243.733 91.5039 239.111 91.5039 233.316ZM157.373 206.021L157.275 211.881H116.064L116.162 240.689C116.162 244.921 116.895 247.997 118.359 249.918C120.02 252.034 122.917 253.189 127.051 253.385C129.688 253.515 132.324 252.652 134.961 250.797C137.305 249.169 139.242 247.102 140.771 244.596C142.432 241.861 143.262 239.192 143.262 236.588L143.164 218.18L153.369 221.695V271.695C153.369 277.783 150.57 282.747 144.971 286.588C139.795 290.136 133.724 291.91 126.758 291.91C114.974 291.91 106.592 288.704 101.611 282.291C99.5931 279.687 98.584 277.457 98.584 275.602C98.6165 271.533 100.895 268.115 105.42 265.348C109.424 262.906 113.574 261.686 117.871 261.686L124.072 269.986C118.473 270.377 113.46 271.565 109.033 273.551C106.136 274.853 104.688 276.529 104.688 278.58C105.046 281.542 107.275 284.163 111.377 286.441C113.818 287.809 116.976 288.492 120.85 288.492C129.736 288.492 136.442 285.611 140.967 279.85C143.115 277.115 144.189 273.925 144.189 270.279V250.406C142.074 253.857 136.426 255.582 127.246 255.582C119.531 255.582 113.688 252.945 109.717 247.672C107.764 245.1 106.787 242.171 106.787 238.883V211.881H99.8535V206.021H157.373ZM204.443 211.881H171.924V219.693C172.054 219.693 172.184 219.758 172.314 219.889C172.445 220.019 172.559 220.084 172.656 220.084C172.396 220.084 172.249 220.068 172.217 220.035C172.217 219.872 174.642 219.352 179.492 218.473C181.283 218.147 183.057 217.984 184.814 217.984C192.139 217.984 196.842 220.035 198.926 224.137C200.326 226.871 201.025 232.389 201.025 240.689V259.488C200.342 259.228 197.754 258.17 193.262 256.314C193.262 255.273 193.05 254.605 192.627 254.312C190.902 255.322 189.486 256.087 188.379 256.607C184.863 258.268 180.778 259.098 176.123 259.098C169.71 259.098 164.762 257.079 161.279 253.043C159.587 251.09 158.74 248.909 158.74 246.5C158.74 243.798 160.075 241.113 162.744 238.443C167.92 233.268 174.349 230.68 182.031 230.68C186.686 230.68 190.43 231.754 193.262 233.902V229.41C191.829 227.587 190.43 226.367 189.062 225.748C187.728 225.13 185.889 224.853 183.545 224.918C178.304 225.016 173.503 225.976 169.141 227.799C167.188 228.613 165.283 229.345 163.428 229.996V226.383C163.851 226.025 164.469 225.488 165.283 224.771C165.413 224.609 165.495 224.511 165.527 224.479V211.881H155.518V206.021H204.443V211.881ZM193.262 242.789C193.262 241.357 191.553 240.071 188.135 238.932C185.303 237.988 182.943 237.516 181.055 237.516C174.186 237.516 168.685 239.99 164.551 244.938C162.891 246.923 162.061 248.551 162.061 249.82C162.744 252.197 165.43 253.385 170.117 253.385C176.172 253.385 181.706 251.871 186.719 248.844C191.081 246.207 193.262 244.189 193.262 242.789ZM252.002 211.881H219.482V219.693C219.613 219.693 219.743 219.758 219.873 219.889C220.003 220.019 220.117 220.084 220.215 220.084C219.954 220.084 219.808 220.068 219.775 220.035C219.775 219.872 222.201 219.352 227.051 218.473C228.841 218.147 230.615 217.984 232.373 217.984C239.697 217.984 244.401 220.035 246.484 224.137C247.884 226.871 248.584 232.389 248.584 240.689V259.488C247.9 259.228 245.312 258.17 240.82 256.314C240.82 255.273 240.609 254.605 240.186 254.312C238.46 255.322 237.044 256.087 235.938 256.607C232.422 258.268 228.337 259.098 223.682 259.098C217.269 259.098 212.321 257.079 208.838 253.043C207.145 251.09 206.299 248.909 206.299 246.5C206.299 243.798 207.633 241.113 210.303 238.443C215.479 233.268 221.908 230.68 229.59 230.68C234.245 230.68 237.988 231.754 240.82 233.902V229.41C239.388 227.587 237.988 226.367 236.621 225.748C235.286 225.13 233.447 224.853 231.104 224.918C225.863 225.016 221.061 225.976 216.699 227.799C214.746 228.613 212.842 229.345 210.986 229.996V226.383C211.41 226.025 212.028 225.488 212.842 224.771C212.972 224.609 213.053 224.511 213.086 224.479V211.881H203.076V206.021H252.002V211.881ZM240.82 242.789C240.82 241.357 239.111 240.071 235.693 238.932C232.861 237.988 230.501 237.516 228.613 237.516C221.745 237.516 216.243 239.99 212.109 244.938C210.449 246.923 209.619 248.551 209.619 249.82C210.303 252.197 212.988 253.385 217.676 253.385C223.73 253.385 229.264 251.871 234.277 248.844C238.639 246.207 240.82 244.189 240.82 242.789ZM307.959 206.021L307.861 211.881H266.65L266.748 240.689C266.748 244.921 267.48 247.997 268.945 249.918C270.605 252.034 273.503 253.189 277.637 253.385C280.273 253.515 282.91 252.652 285.547 250.797C287.891 249.169 289.827 247.102 291.357 244.596C293.018 241.861 293.848 239.192 293.848 236.588L293.75 218.18L303.955 221.695V271.695C303.955 277.783 301.156 282.747 295.557 286.588C290.381 290.136 284.31 291.91 277.344 291.91C265.56 291.91 257.178 288.704 252.197 282.291C250.179 279.687 249.17 277.457 249.17 275.602C249.202 271.533 251.481 268.115 256.006 265.348C260.01 262.906 264.16 261.686 268.457 261.686L274.658 269.986C269.059 270.377 264.046 271.565 259.619 273.551C256.722 274.853 255.273 276.529 255.273 278.58C255.632 281.542 257.861 284.163 261.963 286.441C264.404 287.809 267.562 288.492 271.436 288.492C280.322 288.492 287.028 285.611 291.553 279.85C293.701 277.115 294.775 273.925 294.775 270.279V250.406C292.66 253.857 287.012 255.582 277.832 255.582C270.117 255.582 264.274 252.945 260.303 247.672C258.35 245.1 257.373 242.171 257.373 238.883V211.881H250.439V206.021H307.959Z" fill="white"/>
<circle cx="29" cy="109" r="13" fill="white" fill-opacity="0.99"/>
<circle cx="10.5" cy="152.5" r="10.5" fill="white" fill-opacity="0.99"/>
<circle cx="65.5" cy="68.5" r="19.5" fill="white" fill-opacity="0.99"/>
<circle cx="126.5" cy="30.5" r="30.5" fill="white" fill-opacity="0.99"/>
<path d="M394.246 212.457H355.223V221.832C355.379 221.832 355.535 221.91 355.691 222.066C355.848 222.223 355.984 222.301 356.102 222.301C355.789 222.301 355.613 222.281 355.574 222.242C355.574 222.047 358.484 221.422 364.305 220.367C366.453 219.977 368.582 219.781 370.691 219.781C379.48 219.781 385.125 222.242 387.625 227.164C389.305 230.445 390.145 237.066 390.145 247.027V269.586C389.324 269.273 386.219 268.004 380.828 265.777C380.828 264.527 380.574 263.727 380.066 263.375C377.996 264.586 376.297 265.504 374.969 266.129C370.75 268.121 365.848 269.117 360.262 269.117C352.566 269.117 346.629 266.695 342.449 261.852C340.418 259.508 339.402 256.891 339.402 254C339.402 250.758 341.004 247.535 344.207 244.332C350.418 238.121 358.133 235.016 367.352 235.016C372.938 235.016 377.43 236.305 380.828 238.883V233.492C379.109 231.305 377.43 229.84 375.789 229.098C374.188 228.355 371.98 228.023 369.168 228.102C362.879 228.219 357.117 229.371 351.883 231.559C349.539 232.535 347.254 233.414 345.027 234.195V229.859C345.535 229.43 346.277 228.785 347.254 227.926C347.41 227.73 347.508 227.613 347.547 227.574V212.457H335.535V205.426H394.246V212.457ZM380.828 249.547C380.828 247.828 378.777 246.285 374.676 244.918C371.277 243.785 368.445 243.219 366.18 243.219C357.938 243.219 351.336 246.188 346.375 252.125C344.383 254.508 343.387 256.461 343.387 257.984C344.207 260.836 347.43 262.262 353.055 262.262C360.32 262.262 366.961 260.445 372.977 256.812C378.211 253.648 380.828 251.227 380.828 249.547ZM413.875 199.273C413.719 199.43 413.27 199.508 412.527 199.508C411.902 199.508 411.355 199.43 410.887 199.273L407.078 191.48C405.516 189.02 403.387 187.359 400.691 186.5C398.035 185.602 396.395 184.625 395.77 183.57C395.184 181.773 394.051 179.02 392.371 175.309V173.961H394.656C397.664 174.898 400.105 175.777 401.98 176.598C405.066 177.965 407.137 179.547 408.191 181.344C408.777 182.32 409.676 184.82 410.887 188.844C412.02 192.633 412.977 195.27 413.758 196.754C413.836 197.457 413.875 198.297 413.875 199.273ZM417.332 212.457H393.484V205.426H417.332V212.457ZM410.652 270.348L400.809 264.898V219.664H410.652V270.348Z" fill="#141414"/>
</svg>
